# This file uses centimeters as units for non-parametric coordinates.

mtllib bean_obj_v01.mtl
g default
v -0.509641 -0.583307 0.637561
v 0.509641 -0.583307 0.637561
v -0.508122 0.990797 0.421543
v 0.508122 0.990797 0.421543
v -0.528585 0.876758 -0.556516
v 0.528585 0.876758 -0.556516
v -0.530105 -1.146155 -0.164098
v 0.530105 -1.146155 -0.164098
v -0.675983 1.082702 -0.027897
v 0.675983 1.082702 -0.027897
v 0.661962 -0.999278 0.322223
v -0.661961 -0.999278 0.322223
v -0.589294 0.226325 0.318497
v 0.589294 0.226325 0.318497
v 0.876836 0.005068 -0.183684
v 0.658360 -0.238621 -0.700812
v -0.658360 -0.238621 -0.700812
v -0.876836 0.005068 -0.183684
v 0.000000 -0.618945 0.830323
v 0.000000 -1.280008 0.548563
v 0.000000 -1.360412 -0.139277
v -0.000000 -0.284778 -0.876658
v 0.000000 1.043311 -0.678128
v -0.000000 1.433176 0.063829
v 0.000000 1.116622 0.622333
v -0.000000 0.266447 0.517514
v 0.000000 -0.994242 0.766863
v 0.614113 -0.805289 0.555350
v 0.309586 -0.632108 0.788109
v -0.786330 0.132320 0.089983
v -0.569078 0.711825 0.367185
v -0.619532 1.086752 0.268760
v 0.000000 -0.190680 0.674395
v 0.573085 -0.268648 0.499361
v 0.825922 -0.557787 0.035975
v 0.619128 -0.845489 -0.439258
v 0.000000 -0.929361 -0.569552
v -0.621786 -1.162197 0.067368
v -0.825922 -0.557787 0.035975
v -0.619128 -0.845489 -0.439258
v -0.614113 -0.805289 0.555350
v -0.573085 -0.268648 0.499361
v -0.364385 -1.222766 0.492453
v -0.309586 -0.632108 0.788109
v -0.317260 -1.324513 -0.137980
v -0.360213 -0.280367 -0.834910
v -0.313253 1.029945 -0.632501
v -0.373733 1.352981 0.042553
v -0.305579 1.103256 0.568416
v -0.314170 0.262681 0.464866
v 0.000000 0.728329 0.578118
v 0.314170 0.262681 0.464866
v 0.569078 0.711825 0.367185
v 0.305579 1.103256 0.568416
v 0.000000 1.352981 -0.331180
v 0.373733 1.352981 0.042553
v 0.627206 1.050097 -0.332845
v 0.313253 1.029945 -0.632501
v -0.000000 0.435086 -0.886402
v 0.615121 0.455237 -0.685058
v 0.360213 -0.280367 -0.834910
v 0.000000 -1.439679 0.239972
v 0.317260 -1.324513 -0.137980
v 0.621787 -1.162197 0.067368
v 0.364385 -1.222766 0.492453
v 0.835270 0.592648 -0.154142
v 0.832373 -0.131027 -0.465509
v -0.832373 -0.131027 -0.465509
v -0.835270 0.592648 -0.154142
v -0.627206 1.050097 -0.332845
v -0.615121 0.455237 -0.685058
v 0.000000 1.352981 0.416285
v 0.619532 1.086752 0.268760
v 0.786330 0.132320 0.089983
v 0.304338 0.728329 0.521788
v 0.344701 1.299517 -0.316333
v 0.335034 0.435086 -0.834867
v 0.341088 -1.384304 0.207974
v 0.785318 0.515690 -0.441771
v -0.785318 0.515690 -0.441771
v 0.344701 1.299517 0.373070
v 0.754623 0.662312 0.128692
v 0.341088 -0.971575 0.714158
v -0.754623 0.662312 0.128692
v 0.308266 -0.205744 0.629325
v 0.751010 -0.397102 0.289746
v 0.781705 -0.717381 -0.226462
v 0.338962 -0.911717 -0.544111
v -0.781705 -0.717381 -0.226462
v -0.751010 -0.397102 0.289746
v -0.341088 -0.971575 0.714158
v -0.341088 -1.384304 0.207974
v -0.338962 -0.911717 -0.544111
v -0.335034 0.435086 -0.834867
v -0.344701 1.299517 -0.316333
v -0.344701 1.299517 0.373070
v -0.304338 0.728329 0.521788
v -0.308266 -0.205744 0.629325
vt 0.424663 0.062726
vt 0.414112 0.978710
vt 0.588112 0.978717
vt 0.577635 0.062732
vt 0.428663 0.289514
vt 0.573615 0.289520
vt 0.284626 0.302848
vt 0.423195 0.474940
vt 0.579069 0.474946
vt 0.717651 0.302866
vt 0.284615 0.008373
vt 0.423982 0.802129
vt 0.578256 0.802135
vt 0.717688 0.008392
vt 0.366740 0.309904
vt 0.398991 0.376134
vt 0.603281 0.376143
vt 0.635537 0.309915
vt 0.601306 0.891737
vt 0.642821 0.018331
vt 0.359481 0.018319
vt 0.400925 0.891729
vt 0.408104 0.182558
vt 0.594184 0.182566
vt 0.680075 0.168323
vt 0.595740 0.642732
vt 0.763527 0.150623
vt 0.238763 0.150601
vt 0.406511 0.642724
vt 0.322214 0.168308
vt 0.501112 0.995039
vt 0.501149 0.050309
vt 0.501115 0.902379
vt 0.501119 0.812693
vt 0.501125 0.643991
vt 0.501132 0.469391
vt 0.501136 0.365100
vt 0.501139 0.287668
vt 0.501144 0.179442
vt 0.544260 0.244876
vt 0.546678 0.412670
vt 0.548512 0.548524
vt 0.544301 0.856893
vt 0.703537 0.242761
vt 0.298746 0.242744
vt 0.544475 0.324267
vt 0.623969 0.247833
vt 0.547938 0.941723
vt 0.378313 0.247823
vt 0.545136 0.112860
vt 0.627443 0.100748
vt 0.707553 0.074724
vt 0.548852 0.738031
vt 0.294744 0.074706
vt 0.374852 0.100737
vt 0.454289 0.941719
vt 0.457933 0.856890
vt 0.453391 0.738027
vt 0.453746 0.548520
vt 0.455591 0.412666
vt 0.457801 0.324264
vt 0.458023 0.244873
vt 0.457157 0.112856
vt 0.501141 0.240693
vt 0.548750 0.181826
vt 0.584682 0.249648
vt 0.539412 0.290170
vt 0.501134 0.413281
vt 0.550334 0.366188
vt 0.593525 0.427040
vt 0.678033 0.315291
vt 0.544242 0.466021
vt 0.501129 0.550120
vt 0.590621 0.541312
vt 0.744598 0.245968
vt 0.550854 0.644622
vt 0.501117 0.859745
vt 0.544001 0.812759
vt 0.593232 0.842600
vt 0.683108 0.003751
vt 0.549455 0.898170
vt 0.663306 0.244380
vt 0.721779 0.158414
vt 0.280511 0.158395
vt 0.338976 0.244367
vt 0.324244 0.315277
vt 0.408743 0.427033
vt 0.257684 0.245947
vt 0.411638 0.541305
vt 0.501138 0.322993
vt 0.591124 0.325243
vt 0.595708 0.304383
vt 0.637927 0.177192
vt 0.501113 0.946697
vt 0.596738 0.940869
vt 0.603472 0.036491
vt 0.550811 0.988348
vt 0.544628 0.050271
vt 0.364361 0.177181
vt 0.417600 0.249641
vt 0.406569 0.304376
vt 0.411152 0.325236
vt 0.501147 0.112970
vt 0.586870 0.109901
vt 0.667856 0.088568
vt 0.744687 0.059945
vt 0.590894 0.739660
vt 0.501122 0.736512
vt 0.319195 0.003735
vt 0.409003 0.842593
vt 0.334440 0.088554
vt 0.257612 0.059924
vt 0.411349 0.739653
vt 0.398828 0.036483
vt 0.405489 0.940861
vt 0.415424 0.109894
vt 0.452776 0.898167
vt 0.451413 0.988344
vt 0.457671 0.050268
vt 0.458236 0.812755
vt 0.451396 0.644619
vt 0.458022 0.466017
vt 0.451939 0.366184
vt 0.462866 0.290167
vt 0.453538 0.181822
vn -0.000000 0.248092 0.968737
vn -0.000000 -0.125079 0.992147
vn 0.366751 0.251915 0.895563
vn 0.333687 -0.109090 0.936350
vn -0.000000 0.112460 0.993656
vn 0.339146 0.111120 0.934148
vn 0.661645 -0.030072 0.749214
vn 0.656954 0.104882 0.746600
vn 0.644910 0.129541 0.753200
vn 0.000000 0.511885 -0.859054
vn -0.000000 0.898959 -0.438033
vn 0.302157 0.509773 -0.805501
vn 0.378352 0.831354 -0.407063
vn -0.000000 0.999937 -0.011249
vn 0.439553 0.898128 -0.012618
vn 0.854122 0.519878 -0.014231
vn 0.764707 0.520917 -0.379299
vn 0.608991 0.358515 -0.707529
vn 0.000000 0.145232 -0.989398
vn 0.283565 0.146394 -0.947713
vn -0.000000 -0.213297 -0.976987
vn 0.259644 -0.202042 -0.944332
vn 0.625707 0.167734 -0.761811
vn 0.627933 -0.155413 -0.762593
vn 0.000000 -0.991322 0.131458
vn 0.408031 -0.903247 0.132870
vn -0.000000 -0.767918 0.640548
vn 0.460680 -0.694506 0.552661
vn 0.000000 -0.852491 -0.522742
vn 0.271051 -0.823813 -0.497858
vn 0.815165 -0.579191 -0.006659
vn 0.620035 -0.631110 -0.466108
vn 0.871757 -0.391221 0.294935
vn 0.983349 0.181674 -0.004473
vn 0.892443 0.188481 -0.409903
vn 0.999326 0.012580 0.034479
vn 0.919497 -0.067498 -0.387258
vn -0.627932 -0.155413 -0.762593
vn -0.919497 -0.067498 -0.387258
vn -0.625707 0.167734 -0.761811
vn -0.892443 0.188481 -0.409903
vn -0.999326 0.012580 0.034479
vn -0.983349 0.181674 -0.004473
vn -0.764707 0.520917 -0.379299
vn -0.854122 0.519878 -0.014231
vn -0.608991 0.358515 -0.707529
vn 0.000000 0.880432 0.474173
vn 0.413320 0.811329 0.413415
vn 0.816947 0.451363 0.358983
vn 0.897123 0.074341 0.435481
vn 0.905054 0.097041 0.414077
vn -0.000000 0.119175 0.992873
vn 0.000000 -0.410158 0.912014
vn 0.319480 0.092487 0.943069
vn 0.395104 -0.395428 0.829174
vn 0.804787 -0.183199 0.564585
vn 0.653800 0.165187 0.738416
vn -0.905054 0.097041 0.414077
vn -0.816947 0.451363 0.358983
vn -0.897123 0.074341 0.435481
vn -0.656954 0.104882 0.746600
vn -0.661645 -0.030072 0.749214
vn -0.644910 0.129541 0.753200
vn -0.000000 0.335331 0.942100
vn 0.311519 0.315560 0.896313
vn 0.661746 0.214363 0.718429
vn 0.903241 0.036239 0.427602
vn 0.981931 -0.140751 0.126498
vn 0.927661 -0.294483 -0.229620
vn 0.629888 -0.455409 -0.629161
vn 0.000000 -0.560520 -0.828141
vn 0.231899 -0.540137 -0.808996
vn -0.815165 -0.579191 -0.006659
vn -0.927661 -0.294483 -0.229620
vn -0.620035 -0.631110 -0.466108
vn -0.629888 -0.455409 -0.629161
vn -0.871757 -0.391221 0.294935
vn -0.981930 -0.140751 0.126498
vn -0.661746 0.214363 0.718429
vn -0.903241 0.036239 0.427602
vn -0.804787 -0.183199 0.564585
vn -0.653800 0.165187 0.738416
vn -0.460680 -0.694506 0.552661
vn -0.395104 -0.395428 0.829174
vn -0.319480 0.092488 0.943069
vn -0.271050 -0.823813 -0.497858
vn -0.408031 -0.903247 0.132870
vn -0.259644 -0.202042 -0.944332
vn -0.231899 -0.540137 -0.808996
vn -0.302157 0.509773 -0.805501
vn -0.283565 0.146394 -0.947713
vn -0.439553 0.898128 -0.012618
vn -0.378352 0.831354 -0.407063
vn -0.366751 0.251915 0.895563
vn -0.413320 0.811329 0.413415
vn -0.339146 0.111120 0.934148
vn -0.333687 -0.109090 0.936350
vn -0.311519 0.315560 0.896313
s 1
g jelly_bean
usemtl initialShadingGroup
f 25/38/1 51/64/2 54/67/3
f 54/67/3 51/64/2 75/40/4
f 51/64/2 26/39/5 75/40/4
f 75/40/4 26/39/5 52/65/6
f 75/40/4 52/65/6 53/66/7
f 53/66/7 52/65/6 14/24/8
f 54/67/3 75/40/4 4/6/9
f 4/6/9 75/40/4 53/66/7
f 23/36/10 55/68/11 58/72/12
f 58/72/12 55/68/11 76/41/13
f 24/37/14 56/69/15 55/68/11
f 55/68/11 56/69/15 76/41/13
f 56/69/15 10/17/16 76/41/13
f 76/41/13 10/17/16 57/70/17
f 76/41/13 57/70/17 58/72/12
f 58/72/12 57/70/17 6/9/18
f 59/73/19 77/42/20 22/35/21
f 22/35/21 77/42/20 61/76/22
f 59/73/19 23/36/10 77/42/20
f 77/42/20 23/36/10 58/72/12
f 58/72/12 6/9/18 77/42/20
f 77/42/20 6/9/18 60/74/23
f 61/76/22 77/42/20 16/26/24
f 16/26/24 77/42/20 60/74/23
f 62/77/25 78/43/26 20/33/27
f 20/33/27 78/43/26 65/81/28
f 62/77/25 21/34/29 78/43/26
f 78/43/26 21/34/29 63/78/30
f 78/43/26 63/78/30 64/79/31
f 64/79/31 63/78/30 8/13/32
f 78/43/26 64/79/31 65/81/28
f 65/81/28 64/79/31 11/19/33
f 10/18/16 66/82/34 57/71/17
f 57/71/17 66/82/34 79/44/35
f 66/82/34 15/25/36 79/44/35
f 79/44/35 15/25/36 67/83/37
f 79/44/35 67/83/37 60/75/23
f 60/75/23 67/83/37 16/27/24
f 57/71/17 79/44/35 6/10/18
f 6/10/18 79/44/35 60/75/23
f 17/28/38 68/84/39 71/88/40
f 71/88/40 68/84/39 80/45/41
f 68/84/39 18/30/42 80/45/41
f 80/45/41 18/30/42 69/85/43
f 80/45/41 69/85/43 70/86/44
f 70/86/44 69/85/43 9/15/45
f 71/88/40 80/45/41 5/7/46
f 5/7/46 80/45/41 70/86/44
f 72/90/47 81/46/48 24/37/14
f 24/37/14 81/46/48 56/69/15
f 25/38/1 54/67/3 72/90/47
f 72/90/47 54/67/3 81/46/48
f 54/67/3 4/6/9 81/46/48
f 81/46/48 4/6/9 73/91/49
f 81/46/48 73/91/49 56/69/15
f 56/69/15 73/91/49 10/17/16
f 74/93/50 82/47/51 14/24/8
f 14/24/8 82/47/51 53/66/7
f 15/25/36 66/82/34 74/93/50
f 74/93/50 66/82/34 82/47/51
f 66/82/34 10/18/16 82/47/51
f 82/47/51 10/18/16 73/92/49
f 82/47/51 73/92/49 53/66/7
f 53/66/7 73/92/49 4/6/9
f 19/31/52 27/94/53 29/97/54
f 29/97/54 27/94/53 83/48/55
f 27/94/53 20/33/27 83/48/55
f 83/48/55 20/33/27 65/81/28
f 83/48/55 65/81/28 28/95/56
f 28/95/56 65/81/28 11/19/33
f 83/48/55 28/95/56 29/97/54
f 29/97/54 28/95/56 2/3/57
f 69/85/43 84/49/58 9/15/45
f 9/15/45 84/49/58 32/101/59
f 18/30/42 30/99/60 69/85/43
f 69/85/43 30/99/60 84/49/58
f 30/99/60 13/23/61 84/49/58
f 84/49/58 13/23/61 31/100/62
f 84/49/58 31/100/62 32/101/59
f 32/101/59 31/100/62 3/5/63
f 33/103/64 85/50/65 26/39/5
f 26/39/5 85/50/65 52/65/6
f 19/32/52 29/98/54 33/103/64
f 33/103/64 29/98/54 85/50/65
f 29/98/54 2/4/57 85/50/65
f 85/50/65 2/4/57 34/104/66
f 85/50/65 34/104/66 52/65/6
f 52/65/6 34/104/66 14/24/8
f 28/96/56 86/51/67 2/4/57
f 2/4/57 86/51/67 34/104/66
f 28/96/56 11/20/33 86/51/67
f 86/51/67 11/20/33 35/105/68
f 35/105/68 15/25/36 86/51/67
f 86/51/67 15/25/36 74/93/50
f 86/51/67 74/93/50 34/104/66
f 34/104/66 74/93/50 14/24/8
f 67/83/37 87/52/69 16/27/24
f 16/27/24 87/52/69 36/106/70
f 15/25/36 35/105/68 67/83/37
f 67/83/37 35/105/68 87/52/69
f 35/105/68 11/20/33 87/52/69
f 87/52/69 11/20/33 64/80/31
f 36/106/70 87/52/69 8/14/32
f 8/14/32 87/52/69 64/80/31
f 21/34/29 37/108/71 63/78/30
f 63/78/30 37/108/71 88/53/72
f 37/108/71 22/35/21 88/53/72
f 88/53/72 22/35/21 61/76/22
f 88/53/72 61/76/22 36/107/70
f 36/107/70 61/76/22 16/26/24
f 63/78/30 88/53/72 8/13/32
f 8/13/32 88/53/72 36/107/70
f 38/109/73 89/54/74 7/11/75
f 7/11/75 89/54/74 40/112/76
f 38/109/73 12/21/77 89/54/74
f 89/54/74 12/21/77 39/111/78
f 89/54/74 39/111/78 68/84/39
f 68/84/39 39/111/78 18/30/42
f 40/112/76 89/54/74 17/28/38
f 17/28/38 89/54/74 68/84/39
f 13/23/61 30/99/60 42/116/79
f 42/116/79 30/99/60 90/55/80
f 30/99/60 18/30/42 90/55/80
f 90/55/80 18/30/42 39/111/78
f 39/111/78 12/21/77 90/55/80
f 90/55/80 12/21/77 41/114/81
f 42/116/79 90/55/80 1/1/82
f 1/1/82 90/55/80 41/114/81
f 12/22/77 43/117/83 41/115/81
f 41/115/81 43/117/83 91/56/84
f 43/117/83 20/33/27 91/56/84
f 91/56/84 20/33/27 27/94/53
f 91/56/84 27/94/53 44/118/85
f 44/118/85 27/94/53 19/31/52
f 91/56/84 44/118/85 41/115/81
f 41/115/81 44/118/85 1/2/82
f 7/12/75 45/120/86 38/110/73
f 38/110/73 45/120/86 92/57/87
f 45/120/86 21/34/29 92/57/87
f 92/57/87 21/34/29 62/77/25
f 62/77/25 20/33/27 92/57/87
f 92/57/87 20/33/27 43/117/83
f 92/57/87 43/117/83 38/110/73
f 38/110/73 43/117/83 12/22/77
f 17/29/38 46/121/88 40/113/76
f 40/113/76 46/121/88 93/58/89
f 46/121/88 22/35/21 93/58/89
f 93/58/89 22/35/21 37/108/71
f 93/58/89 37/108/71 45/120/86
f 45/120/86 37/108/71 21/34/29
f 40/113/76 93/58/89 7/12/75
f 7/12/75 93/58/89 45/120/86
f 47/122/90 94/59/91 5/8/46
f 5/8/46 94/59/91 71/89/40
f 47/122/90 23/36/10 94/59/91
f 94/59/91 23/36/10 59/73/19
f 59/73/19 22/35/21 94/59/91
f 94/59/91 22/35/21 46/121/88
f 71/89/40 94/59/91 17/29/38
f 17/29/38 94/59/91 46/121/88
f 48/123/92 95/60/93 9/16/45
f 9/16/45 95/60/93 70/87/44
f 24/37/14 55/68/11 48/123/92
f 48/123/92 55/68/11 95/60/93
f 95/60/93 55/68/11 47/122/90
f 47/122/90 55/68/11 23/36/10
f 95/60/93 47/122/90 70/87/44
f 70/87/44 47/122/90 5/8/46
f 49/124/94 96/61/95 3/5/63
f 3/5/63 96/61/95 32/102/59
f 25/38/1 72/90/47 49/124/94
f 49/124/94 72/90/47 96/61/95
f 72/90/47 24/37/14 96/61/95
f 96/61/95 24/37/14 48/123/92
f 96/61/95 48/123/92 32/102/59
f 32/102/59 48/123/92 9/16/45
f 13/23/61 50/125/96 31/100/62
f 31/100/62 50/125/96 97/62/97
f 50/125/96 26/39/5 97/62/97
f 97/62/97 26/39/5 51/64/2
f 97/62/97 51/64/2 49/124/94
f 49/124/94 51/64/2 25/38/1
f 31/100/62 97/62/97 3/5/63
f 3/5/63 97/62/97 49/124/94
f 44/119/85 98/63/98 1/1/82
f 1/1/82 98/63/98 42/116/79
f 19/32/52 33/103/64 44/119/85
f 44/119/85 33/103/64 98/63/98
f 33/103/64 26/39/5 98/63/98
f 98/63/98 26/39/5 50/125/96
f 98/63/98 50/125/96 42/116/79
f 42/116/79 50/125/96 13/23/61
